<?xml version="1.0" encoding="UTF-8" standalone="no"?>
<!-- Created with Inkscape (http://www.inkscape.org/) -->

<svg
   xmlns:dc="http://purl.org/dc/elements/1.1/"
   xmlns:cc="http://creativecommons.org/ns#"
   xmlns:rdf="http://www.w3.org/1999/02/22-rdf-syntax-ns#"
   xmlns:svg="http://www.w3.org/2000/svg"
   xmlns="http://www.w3.org/2000/svg"
   xmlns:sodipodi="http://sodipodi.sourceforge.net/DTD/sodipodi-0.dtd"
   xmlns:inkscape="http://www.inkscape.org/namespaces/inkscape"
   width="410"
   height="251"
   id="svg3140"
   version="1.1"
   inkscape:version="0.48.4 r9939"
   sodipodi:docname="graficonavegadores.svg">
  <defs
     id="defs3142" />
  <sodipodi:namedview
     id="base"
     pagecolor="#ffffff"
     bordercolor="#666666"
     borderopacity="1.0"
     inkscape:pageopacity="0.0"
     inkscape:pageshadow="2"
     inkscape:zoom="1.979899"
     inkscape:cx="310.72066"
     inkscape:cy="113.80663"
     inkscape:document-units="px"
     inkscape:current-layer="layer1"
     showgrid="false"
     inkscape:window-width="1280"
     inkscape:window-height="748"
     inkscape:window-x="-8"
     inkscape:window-y="22"
     inkscape:window-maximized="1" />
  <metadata
     id="metadata3145">
    <rdf:RDF>
      <cc:Work
         rdf:about="">
        <dc:format>image/svg+xml</dc:format>
        <dc:type
           rdf:resource="http://purl.org/dc/dcmitype/StillImage" />
        <dc:title />
      </cc:Work>
    </rdf:RDF>
  </metadata>
  <g
     inkscape:label="Capa 1"
     inkscape:groupmode="layer"
     id="layer1"
     transform="translate(0,-801.36218)">
    <path
       style="fill:#ff7f2a;fill-opacity:1;fill-rule:evenodd;stroke:#000000;stroke-width:0.74206185px;stroke-linecap:butt;stroke-linejoin:miter;stroke-opacity:1"
       d="m 242.13943,972.31323 c -0.0183,0.0198 -0.0472,2.9e-4 -0.0625,0.0312 0,0 0.0617,0.16134 -107.03125,-45.09375 -3.29074,3.84291 -4.63956,5.47046 -7.65625,9 -0.4412,0.57585 -0.55756,0.75615 -1.0625,1.40625 -2.77539,3.57325 -6.57942,8.30083 -11.9375,14.75 -5.35808,6.44917 -12.26166,14.62899 -21.281248,25.03125 -4.307345,4.96765 -10.861743,12.32769 -16.187496,18.375 -2.656251,3.18663 -6.945966,8.25832 -8.84375,10.56252 -7.77168,9.4357 -7.648715,9.5248 -8.125,10.2187 20.251708,16.7341 46.145864,26.875 74.468744,26.875 48.36726,0 89.84739,-29.3243 107.71875,-71.15622 z"
       id="path3972"
       inkscape:connector-curvature="0" />
    <path
       style="fill:#808000;fill-rule:evenodd;stroke:#000000;stroke-width:0.74206185px;stroke-linecap:butt;stroke-linejoin:miter;stroke-opacity:1"
       d="m 241.85311,972.22455 c -1.9363,-0.67099 -5.56595,-2.01869 -12.59375,-4.84375 -7.06403,-2.83963 -17.49853,-7.1388 -32.90625,-13.65625 -15.33829,-6.48808 -35.69001,-15.22248 -62.46875,-26.84375 -0.0296,0.0482 -1.45487,2.38418 -2.25,3.53125 -1.50495,2.17107 -2.76617,3.75446 -4.75,6.34375 3.01669,-3.52954 4.36551,-5.15709 7.65625,-9 107.09296,45.25509 107.03125,45.09375 107.03125,45.09375 0.0153,-0.031 0.0442,-0.0114 0.0625,-0.0312 0.0825,-0.1932 0.13721,-0.40002 0.21875,-0.59375 z"
       id="path3987"
       inkscape:connector-curvature="0" />
    <path
       style="fill:#008bff;fill-opacity:1;fill-rule:evenodd;stroke:#000000;stroke-width:0.74206185px;stroke-linecap:butt;stroke-linejoin:miter;stroke-opacity:1"
       d="m 203.50936,832.7558 c -0.0387,0.073 -0.0431,-6.2e-4 -0.125,0.125 0,0 0.1324,-0.35803 -18.84375,25.09375 -1.2778,1.71382 -2.63703,3.54262 -4.09375,5.5 -1.39635,1.87626 -2.86623,3.8542 -4.4375,5.96875 -9.90574,13.33075 -23.49358,31.67871 -42.09375,56.875 0,10e-6 0,0.53125 0,0.53125 0,0 -0.0309,0.0307 -0.0312,0.0312 26.77874,11.62127 47.13046,20.35567 62.46875,26.84375 15.40772,6.51745 25.84222,10.81662 32.90625,13.65625 7.0278,2.82506 10.65745,4.17276 12.59375,4.84375 5.8762,-13.96088 9.18745,-29.27706 9.18745,-45.37495 0,-38.593 -18.737,-72.74648 -47.53125,-94.09375 z"
       id="path3985"
       inkscape:connector-curvature="0" />
    <path
       style="fill:#808000;fill-rule:evenodd;stroke:#000000;stroke-width:0.74206185px;stroke-linecap:butt;stroke-linejoin:miter;stroke-opacity:1"
       d="m 203.10311,832.47455 c 0.003,-0.002 0.32864,-0.23632 -18.65625,25.21875 -1.28655,1.725 -2.65888,3.56411 -4.125,5.53125 -1.40536,1.88562 -2.9191,3.87761 -4.5,6 -9.93169,13.33355 -23.56186,31.68428 -41.90625,56.375 0,4e-5 0,0.71874 0,0.71875 18.60017,-25.19629 32.18801,-43.54425 42.09375,-56.875 1.57127,-2.11455 3.04115,-4.09249 4.4375,-5.96875 1.45672,-1.95738 2.81595,-3.78618 4.09375,-5.5 18.97615,-25.45178 18.84375,-25.09375 18.84375,-25.09375 0.0819,-0.12562 0.0863,-0.052 0.125,-0.125 -0.13238,-0.0981 -0.27345,-0.18364 -0.40625,-0.28125 z"
       id="path3998"
       inkscape:connector-curvature="0" />
    <path
       style="fill:#ff2a2a;fill-rule:evenodd;stroke:#000000;stroke-width:0.74206185px;stroke-linecap:butt;stroke-linejoin:miter;stroke-opacity:1"
       d="m 151.60311,811.0683 c -5.76717,-0.883 -11.66993,-1.375 -17.6875,-1.375 -0.2111,0 -0.41416,0.0301 -0.625,0.0312 0.22813,0.0287 0.45963,0.0318 0.6875,0.0625 -0.0732,111.73907 0.44155,117.58893 0.44258,117.77967 4.46147,-27.93048 7.52636,-56.18437 10.02617,-71.71717 0.42051,-2.61285 0.81317,-5.05326 1.1875,-7.375 0.39051,-2.42212 0.75051,-4.68812 1.09375,-6.8125 4.99529,-30.91769 4.87746,-30.59425 4.875,-30.59375 z"
       id="path3996"
       inkscape:connector-curvature="0"
       sodipodi:nodetypes="cscccsssc" />
    <path
       style="fill:#c8b7b7;fill-rule:evenodd;stroke:#000000;stroke-width:0.74206185px;stroke-linecap:butt;stroke-linejoin:miter;stroke-opacity:1"
       d="m 151.60311,811.0683 c 0.002,-5e-4 0.12029,-0.32394 -4.875,30.59375 -0.34324,2.12438 -0.70324,4.39038 -1.09375,6.8125 -0.37433,2.32174 -0.76699,4.76215 -1.1875,7.375 -2.49981,15.5328 -5.5647,42.27146 -10.02617,70.20194 4e-5,0.007 -0.25255,2.07322 -0.25254,2.07344 18.34439,-24.69072 31.72202,-45.56683 41.65371,-58.90038 1.5809,-2.12239 3.09464,-4.11438 4.5,-6 1.46612,-1.96714 2.83845,-3.80625 4.125,-5.53125 18.98489,-25.45507 18.65936,-25.22072 18.65625,-25.21875 -14.89498,-10.94744 -32.42754,-18.4861 -51.5,-21.40625 z"
       id="path3954"
       inkscape:connector-curvature="0"
       sodipodi:nodetypes="csssccssscc" />
    <path
       style="fill:#49ff54;fill-opacity:1;fill-rule:evenodd;stroke:#000000;stroke-width:0.74206185px;stroke-linecap:butt;stroke-linejoin:miter;stroke-opacity:1"
       d="m 60.255417,1016.2641 c 13.759892,-15.4325 22.613821,-27.5614 31.633407,-37.96366 9.019586,-10.40226 15.923166,-18.58208 21.281246,-25.03125 5.35808,-6.44917 9.16211,-11.17675 11.9375,-14.75 2.77539,-3.57325 6.81385,-7.49072 8.59022,-10.15923 2.16548,-3.02218 -0.51067,-1.13197 -0.43397,-118.21577 -0.22787,-0.0307 -0.45937,-0.0338 -0.6875,-0.0625 -64.397335,0.34072 -116.499996,52.64756 -116.499996,117.125 0,35.83825 18.416212,67.60599 43.772843,89.09121 0.147145,0.072 0.258511,-0.1058 0.40625,-0.034 z"
       id="path3148"
       inkscape:connector-curvature="0"
       sodipodi:nodetypes="cssscccscc" />
    <path
       style="fill:none;stroke:#000000;stroke-width:1px;stroke-linecap:butt;stroke-linejoin:miter;stroke-opacity:1"
       d="M 117.68277,932.15402 z"
       id="path3976"
       inkscape:connector-curvature="0" />
    <rect
       style="fill:#49ff54;fill-opacity:1"
       id="rect4004"
       width="10"
       height="10"
       x="288.12329"
       y="859.55908" />
    <rect
       style="fill:#ff7f2a;fill-opacity:1"
       id="rect4004-4"
       width="10"
       height="10"
       x="288.12326"
       y="878.76831" />
    <rect
       y="897.76831"
       x="288.12326"
       height="10"
       width="10"
       id="rect4024"
       style="fill:#008bff;fill-opacity:1" />
    <rect
       style="fill:#c8b7b7;fill-opacity:1"
       id="rect4026"
       width="10"
       height="10"
       x="287.87073"
       y="915.73517" />
    <rect
       y="935.91119"
       x="288.07993"
       height="10"
       width="10"
       id="rect4028"
       style="fill:#ff2a2a;fill-opacity:1" />
    <text
       xml:space="preserve"
       style="font-size:10px;font-style:normal;font-weight:normal;line-height:157.00000525%;letter-spacing:0px;word-spacing:0px;fill:#000000;fill-opacity:1;stroke:none;font-family:Sans"
       x="302.54068"
       y="869.01947"
       id="text4030"
       sodipodi:linespacing="157.00001%"><tspan
         sodipodi:role="line"
         id="tspan4032"
         x="302.54068"
         y="869.01947"
         style="font-size:12px">Google Chrome</tspan><tspan
         sodipodi:role="line"
         x="302.54068"
         y="887.8595"
         id="tspan4034"
         style="font-size:12px">Mozilla Firefox</tspan><tspan
         sodipodi:role="line"
         x="302.54068"
         y="906.69946"
         id="tspan4036"
         style="font-size:12px">Internet Explorer</tspan><tspan
         sodipodi:role="line"
         x="302.54068"
         y="925.53949"
         id="tspan4038"
         style="font-size:12px">Otros</tspan><tspan
         sodipodi:role="line"
         x="302.54068"
         y="944.37946"
         id="tspan4040"
         style="font-size:12px">Opera</tspan></text>
  </g>
</svg>
