<?xml version="1.0" encoding="UTF-8" standalone="no"?>
<!-- Created with Inkscape (http://www.inkscape.org/) -->

<svg
   xmlns:dc="http://purl.org/dc/elements/1.1/"
   xmlns:cc="http://creativecommons.org/ns#"
   xmlns:rdf="http://www.w3.org/1999/02/22-rdf-syntax-ns#"
   xmlns:svg="http://www.w3.org/2000/svg"
   xmlns="http://www.w3.org/2000/svg"
   xmlns:sodipodi="http://sodipodi.sourceforge.net/DTD/sodipodi-0.dtd"
   xmlns:inkscape="http://www.inkscape.org/namespaces/inkscape"
   width="102"
   height="52"
   id="svg3087"
   version="1.1"
   inkscape:version="0.48.4 r9939"
   sodipodi:docname="logopie.svg">
  <defs
     id="defs3089" />
  <sodipodi:namedview
     id="base"
     pagecolor="#ffffff"
     bordercolor="#666666"
     borderopacity="1.0"
     inkscape:pageopacity="0.0"
     inkscape:pageshadow="2"
     inkscape:zoom="3.959798"
     inkscape:cx="50.379891"
     inkscape:cy="15.555112"
     inkscape:document-units="px"
     inkscape:current-layer="layer1"
     showgrid="false"
     inkscape:window-width="1920"
     inkscape:window-height="1017"
     inkscape:window-x="-8"
     inkscape:window-y="32"
     inkscape:window-maximized="1" />
  <metadata
     id="metadata3092">
    <rdf:RDF>
      <cc:Work
         rdf:about="">
        <dc:format>image/svg+xml</dc:format>
        <dc:type
           rdf:resource="http://purl.org/dc/dcmitype/StillImage" />
        <dc:title />
      </cc:Work>
    </rdf:RDF>
  </metadata>
  <g
     inkscape:label="Capa 1"
     inkscape:groupmode="layer"
     id="layer1"
     transform="translate(0,-1000.3622)">
    <g
       transform="matrix(0.54517943,0,0,0.54647053,-99.69636,5.8644664)"
       style="font-size:62px;font-style:normal;font-weight:normal;line-height:125%;letter-spacing:0px;word-spacing:0px;fill:#000000;fill-opacity:1;stroke:none;font-family:Sans"
       id="flowRoot4021-1" />
    <path
       id="cut-icon-8"
       style="fill:#424040;fill-opacity:1"
       d="m 47.573509,1037.1615 c 2.876367,5.6186 5.805653,11.3179 6.617286,12.9016 1.531736,2.9878 6.110844,1.0383 6.110844,1.0383 l -6.844387,-13.3533 -5.883743,-0.5866 z m -20.37988,-4.293 c -0.758172,3.8624 1.850201,7.3266 5.814486,7.7225 3.500695,0.3493 6.905568,-1.8086 8.177408,-4.9772 0.725262,-1.8075 1.600826,-1.5204 3.129874,-1.3687 l 25.562965,2.551 c 0,0 0.1172,-4.9982 -3.209175,-5.3305 -2.043249,-0.2037 -10.243067,-1.032 -17.319087,-1.7299 l -0.816517,-1.593 c -0.703245,-1.3738 -1.291109,-2.0867 0.11345,-3.4298 2.462265,-2.3555 3.204656,-6.3327 1.592873,-9.4765 -1.824827,-3.5604 -5.988705,-4.7238 -9.28154,-2.5932 -3.292956,2.1305 -4.424469,6.7215 -2.662,10.3216 1.311596,2.6791 3.450433,2.7584 4.779443,5.3801 0.133024,0.2629 0.27209,0.5369 0.415469,0.8188 -0.344569,-0.033 -0.678101,-0.065 -0.997405,-0.096 -2.914189,-0.2774 -3.774585,-2.2475 -6.734781,-2.4876 -3.978121,-0.3223 -7.806969,2.4253 -8.565455,6.2879 z m 18.902366,-10.2015 c -1.673501,1.0825 -3.854953,0.3638 -4.862617,-1.6024 -1.007818,-1.9664 -0.466483,-4.4467 1.206831,-5.5299 1.673843,-1.0828 3.854901,-0.3639 4.862833,1.6025 1.008255,1.966 0.466776,4.4466 -1.207047,5.5298 z m 1.14635,8.6886 c 0.411866,-0.6078 1.17904,-0.8036 1.713487,-0.4373 0.534567,0.3664 0.633899,1.1562 0.222202,1.7639 -0.411844,0.6079 -1.179121,0.8037 -1.713679,0.4374 -0.534441,-0.3663 -0.633847,-1.1561 -0.221998,-1.7639 z m -12.159802,-1.3299 c 2.189327,0.2184 3.656768,1.9931 3.271794,3.956 -0.385533,1.9634 -2.480305,3.3827 -4.669843,3.164 -2.189255,-0.2185 -3.65677,-1.9928 -3.271481,-3.9563 0.385824,-1.9627 2.480426,-3.3818 4.66953,-3.1637 z m 47.938869,-21.7263 4.92911,0 4.18728,12.2677 4.088361,-12.2677 4.797227,0 -6.181998,16.6281 -1.10451,3.0099 c -0.40666,1.0088 -0.79406,1.7789 -1.16222,2.3104 -0.36818,0.5315 -0.7913,0.9626 -1.26937,1.2935 -0.47808,0.3308 -1.06606,0.5884 -1.76393,0.7728 -0.69788,0.1844 -1.48644,0.2766 -2.36565,0.2766 -0.8902,0 -1.76393,-0.092 -2.62117,-0.2766 l -0.41213,-3.5794 c 0.72535,0.141 1.37927,0.2115 1.96176,0.2115 1.07704,0 1.87382,-0.3119 2.39037,-0.9356 0.51653,-0.6236 0.91218,-1.4182 1.18695,-2.3835 z m -7.17112,17.2789 0,-23.852 4.63238,0 0,23.852 z m -3.247605,-17.2789 0,3.6445 -3.165182,0 0,6.9636 c -6e-6,1.4101 0.03023,2.2317 0.09066,2.4649 0.06044,0.2332 0.197819,0.4258 0.412136,0.5776 0.214302,0.1519 0.47532,0.2278 0.783054,0.2278 0.428608,0 1.049556,-0.1464 1.862843,-0.4393 l 0.395646,3.5469 c -1.077049,0.4556 -2.296961,0.6833 -3.65974,0.6833 -0.835265,0 -1.588092,-0.1382 -2.25849,-0.4148 -0.670407,-0.2766 -1.16222,-0.6346 -1.475439,-1.0739 -0.313223,-0.4393 -0.530279,-1.0331 -0.651169,-1.7815 -0.09891,-0.5315 -0.148368,-1.6054 -0.148368,-3.2215 l 0,-7.5331 -2.126605,0 0,-3.6445 2.126605,0 0,-3.433 4.648863,-2.6683 0,6.1013 z m -16.716123,17.2789 -4.632374,0 0,-17.2789 4.302672,0 0,2.4568 c 0.736337,-1.1606 1.398496,-1.9253 1.986482,-2.2941 0.587965,-0.3688 1.255618,-0.5532 2.002966,-0.5532 1.05505,0 2.071644,0.2875 3.049782,0.8623 l -1.434224,3.9862 c -0.780314,-0.4989 -1.505669,-0.7484 -2.176061,-0.7484 -0.64843,0 -1.197939,0.1763 -1.648531,0.5288 -0.450607,0.3525 -0.805043,0.9897 -1.063305,1.9117 -0.258278,0.922 -0.387412,2.8527 -0.387407,5.7922 z m -29.821952,-23.852 0,8.7696 c 1.494658,-1.7247 3.280567,-2.587 5.357728,-2.587 1.066039,0 2.027683,0.1953 2.884936,0.5857 0.857216,0.3905 1.502892,0.8895 1.937021,1.4969 0.434098,0.6074 0.730832,1.2799 0.89021,2.0175 0.159341,0.7376 0.239019,1.8819 0.239035,3.433 l 0,10.1363 -4.632374,0 0,-9.1276 c -1.6e-5,-1.8114 -0.08793,-2.9611 -0.263768,-3.4492 -0.175856,-0.4881 -0.486329,-0.8759 -0.931421,-1.1634 -0.445113,-0.2874 -1.002866,-0.4311 -1.673258,-0.4311 -0.769327,0 -1.456214,0.1844 -2.060666,0.5532 -0.60447,0.3688 -1.046828,0.9247 -1.327068,1.6677 -0.280257,0.743 -0.420386,1.8412 -0.420375,3.2947 l 0,8.6557 -4.632378,0 0,-23.852 z m -25.0412143,18.9221 4.6488619,-0.6996 c 0.197823,0.8894 0.598965,1.5646 1.203434,2.0256 0.604453,0.461 1.450696,0.6915 2.5387347,0.6915 1.1979277,0 2.0991217,-0.2169 2.7035967,-0.6508 0.406625,-0.3037 0.609943,-0.7105 0.609959,-1.2203 -1.6e-5,-0.347 -0.109917,-0.6345 -0.329708,-0.8623 -0.230806,-0.2169 -0.747348,-0.4176 -1.549624,-0.602 -3.7366794,-0.8135 -6.1050693,-1.5565 -7.1051743,-2.229 -1.384768,-0.9328 -2.077149,-2.229 -2.077149,-3.8885 0,-1.4969 0.598964,-2.7551 1.796898,-3.7747 1.197934,-1.0196 3.0552769,-1.5294 5.5720436,-1.5294 2.3958507,0 4.1762657,0.3851 5.3412447,1.1552 1.164944,0.7701 1.967232,1.909 2.406856,3.4167 l -4.368611,0.7972 c -0.186845,-0.6724 -0.541281,-1.1877 -1.063305,-1.5456 -0.522041,-0.3579 -1.266629,-0.5369 -2.2337617,-0.5369 -1.2199227,0 -2.0936437,0.1681 -2.6211627,0.5043 -0.351697,0.2387 -0.527536,0.5478 -0.527531,0.9274 -5e-6,0.3255 0.153857,0.6021 0.461586,0.8298 0.417624,0.3037 1.860087,0.7322 4.3273984,1.2854 2.467292,0.5532 4.190006,1.2311 5.16815,2.0337 0.967121,0.8135 1.45069,1.947 1.450706,3.4005 -1.6e-5,1.5836 -0.670419,2.9449 -2.011204,4.0838 -1.340823,1.1389 -3.324555,1.7083 -5.9512077,1.7083 -2.3848837,0 -4.2724486,-0.4772 -5.6627066,-1.4317 -1.390263,-0.9545 -2.299705,-2.2507 -2.728324,-3.8886 z"
       inkscape:connector-curvature="0" />
  </g>
</svg>
