<?xml version="1.0" encoding="UTF-8" standalone="no"?>
<svg
   xmlns:dc="http://purl.org/dc/elements/1.1/"
   xmlns:cc="http://creativecommons.org/ns#"
   xmlns:rdf="http://www.w3.org/1999/02/22-rdf-syntax-ns#"
   xmlns:svg="http://www.w3.org/2000/svg"
   xmlns="http://www.w3.org/2000/svg"
   xmlns:sodipodi="http://sodipodi.sourceforge.net/DTD/sodipodi-0.dtd"
   xmlns:inkscape="http://www.inkscape.org/namespaces/inkscape"
   version="1.1"
   width="200"
   height="50"
   viewBox="0 0 200 50"
   enable-background="new 0 0 76.00 76.00"
   xml:space="preserve"
   id="svg2"
   inkscape:version="0.48.4 r9939"
   sodipodi:docname="login.svg"><metadata
   id="metadata10"><rdf:RDF><cc:Work
       rdf:about=""><dc:format>image/svg+xml</dc:format><dc:type
         rdf:resource="http://purl.org/dc/dcmitype/StillImage" /></cc:Work></rdf:RDF></metadata><defs
   id="defs8" /><sodipodi:namedview
   pagecolor="#ffffff"
   bordercolor="#666666"
   borderopacity="1"
   objecttolerance="10"
   gridtolerance="10"
   guidetolerance="10"
   inkscape:pageopacity="0"
   inkscape:pageshadow="2"
   inkscape:window-width="1680"
   inkscape:window-height="988"
   id="namedview6"
   showgrid="true"
   inkscape:zoom="3.1052632"
   inkscape:cx="-15.296609"
   inkscape:cy="38"
   inkscape:window-x="-8"
   inkscape:window-y="-8"
   inkscape:window-maximized="1"
   inkscape:current-layer="svg2"><inkscape:grid
     type="xygrid"
     id="grid2987"
     empspacing="5"
     visible="true"
     enabled="true"
     snapvisiblegridlinesonly="true" /></sodipodi:namedview>
	
<g
   transform="matrix(2.785917,0,0,3.3719774,-139.03083,-45.026497)"
   style="font-size:8px;font-style:normal;font-weight:normal;line-height:125%;letter-spacing:0px;word-spacing:0px;fill:#303030;fill-opacity:1;stroke:none;font-family:Sans"
   id="flowRoot2989"><path
     id="path3010"
     style="font-variant:normal;font-stretch:normal;font-family:Narkisim;-inkscape-font-specification:Narkisim;fill:#303030;fill-opacity:1"
     d="m 98.699219,18.414062 -0.160157,0.832032 c -0.182294,-0.122393 -0.359377,-0.183591 -0.53125,-0.183594 -0.177085,3e-6 -0.434897,0.08464 -0.773437,0.253906 l 0,1.789063 c -10e-7,0.401042 0.05078,0.782552 0.152344,1.144531 l -1.066407,0 c 0.101563,-0.367187 0.152344,-0.686197 0.152344,-0.957031 l 0,-1.515625 c 0,-0.528643 -0.05078,-0.980466 -0.152344,-1.355469 l 0.914063,0 0,0.691406 0.597656,-0.664062 c 0.195311,-0.07291 0.365883,-0.109371 0.511719,-0.109375 0.117185,4e-6 0.235674,0.02474 0.355469,0.07422 z m -3.007813,1.632813 -0.0078,0.390625 -2.148438,0 c 0.111978,0.856772 0.509113,1.285157 1.191406,1.285156 0.260415,1e-6 0.552081,-0.07031 0.875,-0.210937 L 95.3125,22.21875 c -0.296878,0.07552 -0.540367,0.113281 -0.730469,0.113281 -0.578126,0 -1.031251,-0.186198 -1.359375,-0.558594 C 92.907552,21.419272 92.75,20.950522 92.75,20.367187 c 0,-0.541664 0.126302,-1.001299 0.378906,-1.378906 0.291666,-0.432288 0.695311,-0.648433 1.210938,-0.648437 0.455727,4e-6 0.804685,0.178389 1.046875,0.535156 0.213538,0.309899 0.315101,0.700524 0.304687,1.171875 z M 95.054687,19.78125 c 0.0078,-0.236976 -0.05339,-0.441403 -0.183593,-0.613281 -0.138023,-0.190101 -0.322919,-0.285153 -0.554688,-0.285157 -0.25521,4e-6 -0.451824,0.109379 -0.589844,0.328125 -0.114584,0.184899 -0.171876,0.412764 -0.171875,0.683594 l 1.496094,0 z m -2.882812,2.46875 -0.914063,0 0,-0.546875 -0.480468,0.535156 c -0.17969,0.0625 -0.332033,0.09375 -0.457032,0.09375 -0.497397,0 -0.876303,-0.161458 -1.136718,-0.484375 -0.242188,-0.29427 -0.363282,-0.695311 -0.363282,-1.203125 0,-0.614581 0.178385,-1.143226 0.535157,-1.585937 0.382811,-0.479163 0.873696,-0.718746 1.472656,-0.71875 0.161456,4e-6 0.304685,0.02084 0.429687,0.0625 l 0,-0.265625 c -2e-6,-0.429683 -0.05078,-0.809891 -0.152343,-1.140625 l 1.066406,-0.21875 c -0.101566,0.377609 -0.152347,0.80339 -0.152344,1.277343 l 0,3.039063 c -3e-6,0.434897 0.05078,0.820313 0.152344,1.15625 z m -0.914063,-0.753906 0,-2.382813 c -0.177085,-0.153642 -0.394533,-0.230465 -0.652343,-0.230469 -0.666668,4e-6 -1.000001,0.481774 -1,1.445313 -10e-7,0.929688 0.346352,1.394532 1.039062,1.394531 0.19531,1e-6 0.399737,-0.07552 0.613281,-0.226562 z m -3.035156,-1.449219 -0.0078,0.390625 -2.148438,0 c 0.111978,0.856772 0.509113,1.285157 1.191406,1.285156 0.260415,1e-6 0.552081,-0.07031 0.875,-0.210937 L 87.84375,22.21875 c -0.296878,0.07552 -0.540367,0.113281 -0.730469,0.113281 -0.578126,0 -1.031251,-0.186198 -1.359375,-0.558594 -0.315104,-0.354165 -0.472656,-0.822915 -0.472656,-1.40625 0,-0.541664 0.126302,-1.001299 0.378906,-1.378906 0.291666,-0.432288 0.695311,-0.648433 1.210938,-0.648437 0.455727,4e-6 0.804685,0.178389 1.046875,0.535156 0.213538,0.309899 0.315101,0.700524 0.304687,1.171875 z M 87.585937,19.78125 c 0.0078,-0.236976 -0.05339,-0.441403 -0.183593,-0.613281 -0.138023,-0.190101 -0.322919,-0.285153 -0.554688,-0.285157 -0.25521,4e-6 -0.451824,0.109379 -0.589844,0.328125 -0.114584,0.184899 -0.171876,0.412764 -0.171875,0.683594 l 1.496094,0 z m -2.769531,1.679687 -0.300781,0.734375 c -0.255211,0.09115 -0.503909,0.136719 -0.746094,0.136719 -0.570314,0 -1.020834,-0.177083 -1.351562,-0.53125 -0.322917,-0.343749 -0.484375,-0.802082 -0.484375,-1.375 0,-0.624997 0.186848,-1.128252 0.560547,-1.509765 0.373696,-0.381507 0.873045,-0.572262 1.498046,-0.572266 0.30729,4e-6 0.553383,0.02735 0.738282,0.08203 l -0.03906,0.886719 c -0.177086,-0.158851 -0.305992,-0.261716 -0.386719,-0.308594 -0.138023,-0.08073 -0.296877,-0.12109 -0.476562,-0.121094 -0.351564,4e-6 -0.63021,0.140629 -0.835938,0.421875 -0.182292,0.252607 -0.273438,0.561201 -0.273437,0.925782 -1e-6,0.421876 0.09375,0.766928 0.28125,1.035156 0.216144,0.304688 0.52604,0.457032 0.929687,0.457031 0.273435,1e-6 0.569008,-0.08724 0.886719,-0.261719 z m -3.328125,0 -0.300781,0.734375 c -0.255211,0.09115 -0.503909,0.136719 -0.746094,0.136719 -0.570314,0 -1.020834,-0.177083 -1.351562,-0.53125 -0.322917,-0.343749 -0.484375,-0.802082 -0.484375,-1.375 0,-0.624997 0.186848,-1.128252 0.560547,-1.509765 0.373696,-0.381507 0.873045,-0.572262 1.498046,-0.572266 0.30729,4e-6 0.553383,0.02735 0.738282,0.08203 l -0.03906,0.88672 C 81.186195,19.153649 81.057289,19.050784 80.976562,19.003906 80.838539,18.92318 80.679685,18.882816 80.5,18.882812 c -0.351564,4e-6 -0.63021,0.140629 -0.835938,0.421875 -0.182292,0.252607 -0.273438,0.561201 -0.273437,0.925782 -10e-7,0.421876 0.09375,0.766928 0.28125,1.035156 0.216144,0.304688 0.52604,0.457032 0.929687,0.457031 0.273435,1e-6 0.569008,-0.08724 0.886719,-0.261719 z m -3.40625,0.789063 -0.914062,0 0,-0.371094 -0.605469,0.449219 -0.179688,0.0039 c -0.312501,0.0078 -0.571615,-0.0599 -0.777343,-0.203125 -0.231771,-0.161458 -0.347657,-0.39453 -0.347657,-0.699219 0,-0.273436 0.11849,-0.514321 0.355469,-0.722656 0.177083,-0.153644 0.437499,-0.300779 0.78125,-0.441406 0.257811,-0.09896 0.515623,-0.196612 0.773438,-0.292969 l 0,-0.207031 c -2e-6,-0.544268 -0.238283,-0.816403 -0.714844,-0.816406 -0.213543,3e-6 -0.492188,0.102868 -0.835938,0.308593 l 0.214844,-0.734375 c 0.328124,-0.122391 0.611978,-0.183589 0.851563,-0.183593 0.515623,4e-6 0.871091,0.177087 1.066406,0.53125 0.14583,0.263024 0.218747,0.678388 0.21875,1.246093 -3e-6,0.11719 -0.0039,0.294924 -0.01172,0.533204 -0.0078,0.238282 -0.01172,0.414714 -0.01172,0.529296 0,0.463549 0.04557,0.820319 0.136721,1.070319 z m -0.914062,-0.570313 0,-1.0625 -1.003907,0 c -0.08073,0.244794 -0.121094,0.441408 -0.121093,0.589844 -10e-7,0.343751 0.225259,0.515626 0.675781,0.515625 0.124998,1e-6 0.274738,-0.01432 0.449219,-0.04297 z m -25.378619,-2.183476 0,2.541959 13.524003,0 -5.464243,3.177449 5.737456,0 7.649941,-4.448429 -7.649941,-4.448428 -5.737456,0 5.464243,3.177449 -13.524003,0 z" /></g></svg>