<?xml version="1.0" encoding="UTF-8" standalone="no"?>
<!-- License Agreement at http://iconmonstr.com/license/ -->

<svg
   xmlns:dc="http://purl.org/dc/elements/1.1/"
   xmlns:cc="http://creativecommons.org/ns#"
   xmlns:rdf="http://www.w3.org/1999/02/22-rdf-syntax-ns#"
   xmlns:svg="http://www.w3.org/2000/svg"
   xmlns="http://www.w3.org/2000/svg"
   xmlns:sodipodi="http://sodipodi.sourceforge.net/DTD/sodipodi-0.dtd"
   xmlns:inkscape="http://www.inkscape.org/namespaces/inkscape"
   version="1.1"
   x="0px"
   y="0px"
   width="80"
   height="60"
   viewBox="0 0 80 60"
   enable-background="new 0 0 512 512"
   xml:space="preserve"
   id="svg2"
   inkscape:version="0.48.4 r9939"
   sodipodi:docname="logout.svg"><metadata
   id="metadata9"><rdf:RDF><cc:Work
       rdf:about=""><dc:format>image/svg+xml</dc:format><dc:type
         rdf:resource="http://purl.org/dc/dcmitype/StillImage" /><dc:title></dc:title></cc:Work></rdf:RDF></metadata><defs
   id="defs7" /><sodipodi:namedview
   pagecolor="#ffffff"
   bordercolor="#666666"
   borderopacity="1"
   objecttolerance="10"
   gridtolerance="10"
   guidetolerance="10"
   inkscape:pageopacity="0"
   inkscape:pageshadow="2"
   inkscape:window-width="1507"
   inkscape:window-height="837"
   id="namedview5"
   showgrid="false"
   fit-margin-top="0"
   fit-margin-left="0"
   fit-margin-right="0"
   fit-margin-bottom="0"
   inkscape:zoom="5.2149125"
   inkscape:cx="53.901868"
   inkscape:cy="42.281885"
   inkscape:window-x="0"
   inkscape:window-y="40"
   inkscape:window-maximized="0"
   inkscape:current-layer="svg2" />
<path
   id="logout-2-icon"
   d="M 34.6066,38.0013 V 21.99812 H 63.705435 V 14.04918 L 79.999999,30 63.705435,45.95082 V 38.00149 H 34.6066 z m 14.004078,5.72284 c -4.228932,5.31783 -10.721748,8.64528 -18.01767,8.64528 -6.093204,0 -11.821554,-2.32702 -16.130097,-6.55207 C 10.154173,41.59229 7.7813577,35.97494 7.7813577,30 c 0,-5.97513 2.3728153,-11.59267 6.6813593,-15.81754 4.308543,-4.22505 10.037087,-6.55188 16.130291,-6.55188 7.309903,0 13.796699,3.33792 18.01767,8.6449 h 9.192233 C 52.722911,6.60977 42.445435,0 30.593008,0 13.697085,0 -1.6024494e-6,13.43129 -1.6024494e-6,30 -1.6024494e-6,46.56795 13.697085,60 30.593008,60 42.445435,60 52.722911,53.38985 57.802911,43.72414 h -9.192233 z"
   inkscape:connector-curvature="0"
   style="fill:#424040;fill-opacity:1" />
</svg>