<?xml version="1.0" encoding="UTF-8" standalone="no"?>
<!-- License Agreement at http://iconmonstr.com/license/ -->

<svg
   xmlns:dc="http://purl.org/dc/elements/1.1/"
   xmlns:cc="http://creativecommons.org/ns#"
   xmlns:rdf="http://www.w3.org/1999/02/22-rdf-syntax-ns#"
   xmlns:svg="http://www.w3.org/2000/svg"
   xmlns="http://www.w3.org/2000/svg"
   xmlns:sodipodi="http://sodipodi.sourceforge.net/DTD/sodipodi-0.dtd"
   xmlns:inkscape="http://www.inkscape.org/namespaces/inkscape"
   version="1.1"
   x="0px"
   y="0px"
   width="200"
   height="50"
   viewBox="0 0 200 50"
   enable-background="new 0 0 512 512"
   xml:space="preserve"
   id="svg2"
   inkscape:version="0.48.4 r9939"
   sodipodi:docname="register.svg"><metadata
   id="metadata9"><rdf:RDF><cc:Work
       rdf:about=""><dc:format>image/svg+xml</dc:format><dc:type
         rdf:resource="http://purl.org/dc/dcmitype/StillImage" /></cc:Work></rdf:RDF></metadata><defs
   id="defs7" /><sodipodi:namedview
   pagecolor="#ffffff"
   bordercolor="#666666"
   borderopacity="1"
   objecttolerance="10"
   gridtolerance="10"
   guidetolerance="10"
   inkscape:pageopacity="0"
   inkscape:pageshadow="2"
   inkscape:window-width="1680"
   inkscape:window-height="988"
   id="namedview5"
   showgrid="true"
   inkscape:zoom="4.4636116"
   inkscape:cx="24.491041"
   inkscape:cy="18.193044"
   inkscape:window-x="-8"
   inkscape:window-y="-8"
   inkscape:window-maximized="1"
   inkscape:current-layer="svg2"><inkscape:grid
     type="xygrid"
     id="grid2986"
     empspacing="5"
     visible="true"
     enabled="true"
     snapvisiblegridlinesonly="true" /></sodipodi:namedview>

<g
   transform="matrix(2.2121795,0,0,2.9725659,-79.667769,-32.609669)"
   style="font-size:8px;font-style:normal;font-weight:normal;line-height:125%;letter-spacing:0px;word-spacing:0px;fill:#303030;fill-opacity:1;stroke:none;font-family:Sans"
   id="flowRoot2988"><path
     id="path3017"
     style="font-variant:normal;font-stretch:normal;font-family:Narkisim;-inkscape-font-specification:Narkisim;fill:#303030;fill-opacity:1"
     d="m 98.347656,18.859375 -0.0078,0.390625 -2.148438,0 c 0.111978,0.856772 0.509113,1.285157 1.191406,1.285156 0.260415,1e-6 0.552081,-0.07031 0.875,-0.210937 L 97.96875,21.03125 c -0.296878,0.07552 -0.540367,0.113281 -0.730469,0.113281 -0.578126,0 -1.031251,-0.186198 -1.359375,-0.558594 -0.315104,-0.354165 -0.472656,-0.822915 -0.472656,-1.40625 0,-0.541664 0.126302,-1.001299 0.378906,-1.378906 0.291666,-0.432288 0.695311,-0.648433 1.210938,-0.648437 0.455727,4e-6 0.804685,0.178389 1.046875,0.535156 0.213538,0.309899 0.315101,0.700524 0.304687,1.171875 z M 97.710937,18.59375 c 0.0078,-0.236976 -0.05339,-0.441403 -0.183593,-0.613281 -0.138023,-0.190101 -0.322919,-0.285153 -0.554688,-0.285157 -0.25521,4e-6 -0.451824,0.109379 -0.589844,0.328125 -0.114584,0.184899 -0.171876,0.412764 -0.171875,0.683594 l 1.496094,0 z m -2.742187,1.445312 c -2e-6,0.354168 -0.136721,0.631511 -0.410156,0.832032 -0.244794,0.182291 -0.549481,0.273437 -0.914063,0.273437 -0.177084,0 -0.470052,-0.04427 -0.878906,-0.132812 l 0,-0.949219 c 0.359374,0.359376 0.661458,0.539063 0.90625,0.539062 0.135415,10e-7 0.254556,-0.04427 0.357422,-0.132812 0.102863,-0.08854 0.154295,-0.20052 0.154297,-0.335938 -2e-6,-0.158853 -0.114585,-0.335936 -0.34375,-0.53125 -0.419272,-0.35156 -0.632813,-0.53255 -0.640625,-0.542968 -0.231771,-0.24479 -0.347657,-0.50781 -0.347657,-0.789063 0,-0.330726 0.138021,-0.604163 0.414063,-0.820312 0.252603,-0.197913 0.549478,-0.296871 0.890625,-0.296875 0.223957,4e-6 0.46354,0.04948 0.71875,0.148437 l 0,0.742188 c -0.268231,-0.231768 -0.503908,-0.347653 -0.707031,-0.347657 -0.138023,4e-6 -0.257814,0.03646 -0.359375,0.109375 -0.114585,0.08334 -0.171876,0.19141 -0.171875,0.324219 -10e-7,0.171878 0.114582,0.356774 0.34375,0.554688 l 0.640625,0.546875 c 0.231768,0.244793 0.347654,0.514324 0.347656,0.808593 z m -2.285156,-2.8125 -0.160157,0.832032 C 92.341143,17.936201 92.16406,17.875003 91.992187,17.875 c -0.177085,3e-6 -0.434897,0.08464 -0.773437,0.253906 l 0,1.789063 c -10e-7,0.401042 0.05078,0.782552 0.152344,1.144531 l -1.066407,0 c 0.101563,-0.367187 0.152344,-0.686197 0.152344,-0.957031 l 0,-1.515625 c 0,-0.528643 -0.05078,-0.980466 -0.152344,-1.355469 l 0.914063,0 0,0.691406 0.597656,-0.664062 c 0.195311,-0.07291 0.365883,-0.109371 0.511719,-0.109375 0.117185,4e-6 0.235674,0.02474 0.355469,0.07422 z m -3.023438,3.835938 -0.914062,0 0,-0.371094 -0.605469,0.449219 -0.179688,0.0039 c -0.312501,0.0078 -0.571615,-0.0599 -0.777343,-0.203125 -0.231771,-0.161458 -0.347657,-0.39453 -0.347657,-0.699219 0,-0.273436 0.11849,-0.514321 0.355469,-0.722656 0.177083,-0.153644 0.437499,-0.300779 0.78125,-0.441406 0.257811,-0.09896 0.515623,-0.196612 0.773438,-0.292969 l 0,-0.207031 c -2e-6,-0.544268 -0.238283,-0.816403 -0.714844,-0.816406 -0.213543,3e-6 -0.492188,0.102868 -0.835938,0.308593 l 0.214844,-0.734375 c 0.328124,-0.122391 0.611978,-0.183589 0.851563,-0.183593 0.515623,4e-6 0.871091,0.177087 1.066406,0.53125 0.14583,0.263024 0.218747,0.678388 0.21875,1.246093 -3e-6,0.11719 -0.0039,0.294924 -0.01172,0.533204 -0.0078,0.238282 -0.01172,0.414714 -0.01172,0.529296 -2e-6,0.463543 0.04557,0.820313 0.136719,1.070313 z m -0.914062,-0.570313 0,-1.0625 -1.003907,0 c -0.08073,0.244794 -0.121094,0.441408 -0.121093,0.589844 -10e-7,0.343751 0.225259,0.515626 0.675781,0.515625 0.124998,1e-6 0.274738,-0.01432 0.449219,-0.04297 z m -2.0625,-3.265625 -0.160157,0.832032 C 86.341143,17.936201 86.16406,17.875003 85.992187,17.875 c -0.177085,3e-6 -0.434897,0.08464 -0.773437,0.253906 l 0,1.789063 c -10e-7,0.401042 0.05078,0.782552 0.152344,1.144531 l -1.066407,0 c 0.101563,-0.367187 0.152344,-0.686197 0.152344,-0.957031 l 0,-1.515625 c 0,-0.528643 -0.05078,-0.980466 -0.152344,-1.355469 l 0.914063,0 0,0.691406 0.597656,-0.664062 c 0.195311,-0.07291 0.365883,-0.109371 0.511719,-0.109375 0.117185,4e-6 0.235674,0.02474 0.355469,0.07422 z m -2.632813,3.058594 -0.289062,0.742188 c -0.270836,0.07813 -0.516929,0.117187 -0.738282,0.117187 -0.440105,0 -0.716146,-0.16927 -0.828125,-0.507812 -0.04687,-0.145833 -0.07031,-0.501301 -0.07031,-1.066407 l 0,-1.792968 -0.542969,0 1.304688,-1.347657 0,0.804688 0.90625,0 0,0.542969 -0.90625,0 0,1.773437 c -2e-6,0.294272 0.01953,0.496095 0.05859,0.605469 0.07292,0.200522 0.227863,0.300782 0.464844,0.300781 0.218748,1e-6 0.43229,-0.05729 0.640625,-0.171875 z m -2.691406,-0.246094 c -2e-6,0.354168 -0.136721,0.631511 -0.410156,0.832032 -0.244794,0.182291 -0.549481,0.273437 -0.914063,0.273437 -0.177084,0 -0.470052,-0.04427 -0.878906,-0.132812 l 0,-0.949219 c 0.359374,0.359376 0.661458,0.539063 0.90625,0.539062 0.135415,10e-7 0.254556,-0.04427 0.357422,-0.132812 0.102863,-0.08854 0.154295,-0.20052 0.154297,-0.335938 -2e-6,-0.158853 -0.114585,-0.335936 -0.34375,-0.53125 -0.419272,-0.35156 -0.632813,-0.53255 -0.640625,-0.542968 -0.231771,-0.24479 -0.347657,-0.50781 -0.347657,-0.789063 0,-0.330726 0.138021,-0.604163 0.414063,-0.820312 0.252603,-0.197913 0.549478,-0.296871 0.890625,-0.296875 0.223957,4e-6 0.46354,0.04948 0.71875,0.148437 l 0,0.742188 c -0.268231,-0.231768 -0.503908,-0.347653 -0.707031,-0.347657 -0.138023,4e-6 -0.257814,0.03646 -0.359375,0.109375 -0.114585,0.08334 -0.171876,0.19141 -0.171875,0.324219 -10e-7,0.171878 0.114582,0.356774 0.34375,0.554688 l 0.640625,0.546875 c 0.231768,0.244793 0.347654,0.514324 0.347656,0.808593 z M 78.65625,16.246094 c -10e-7,0.148442 -0.04297,0.282556 -0.128906,0.402343 -0.09636,0.127609 -0.217449,0.191411 -0.363282,0.191407 -0.15625,4e-6 -0.283854,-0.06119 -0.382812,-0.183594 -0.08854,-0.111975 -0.132813,-0.248693 -0.132813,-0.410156 0,-0.156245 0.04427,-0.291662 0.132813,-0.40625 0.09635,-0.127599 0.221353,-0.191401 0.375,-0.191406 0.143228,5e-6 0.264322,0.06511 0.363281,0.195312 0.09114,0.119797 0.136718,0.253911 0.136719,0.402344 z m 0.03125,4.816406 -1.066406,0 c 0.101562,-0.3125 0.152343,-0.692708 0.152343,-1.140625 l 0,-1.433594 c 0,-0.338539 -0.0052,-0.553382 -0.01563,-0.644531 -0.01563,-0.174476 -0.0612,-0.377601 -0.136718,-0.609375 l 1.066406,0 c -0.07552,0.29167 -0.121095,0.493493 -0.136719,0.605469 -0.01042,0.09896 -0.01563,0.303388 -0.01563,0.613281 l 0,1.46875 c -10e-7,0.453126 0.05078,0.833334 0.152344,1.140625 z m -1.292969,-3.757813 -0.08203,0.617188 -0.632813,-0.0039 c 0.09635,0.229169 0.144529,0.428388 0.144532,0.597656 -3e-6,0.343752 -0.127607,0.645184 -0.382813,0.904297 -0.25521,0.259116 -0.554689,0.388673 -0.898437,0.388672 -0.156252,1e-6 -0.276043,-0.01432 -0.359375,-0.04297 -0.153647,0.09896 -0.23047,0.194012 -0.230469,0.285156 -10e-7,0.156251 0.227863,0.234376 0.683594,0.234375 0.09375,1e-6 0.268227,-0.0078 0.523437,-0.02344 0.656247,10e-7 0.984372,0.272136 0.984375,0.816406 -3e-6,0.4375 -0.199222,0.760416 -0.597656,0.96875 -0.309898,0.161457 -0.703127,0.242186 -1.179688,0.242187 -0.848959,-1e-6 -1.273437,-0.199219 -1.273437,-0.597656 0,-0.114584 0.10026,-0.268229 0.300781,-0.460937 0.140625,-0.122396 0.281249,-0.24349 0.421875,-0.363282 -0.242188,-0.03125 -0.398438,-0.0612 -0.46875,-0.08984 -0.169271,-0.0651 -0.253906,-0.183594 -0.253906,-0.355469 0,-0.119791 0.108073,-0.26302 0.324219,-0.429688 0.153645,-0.104165 0.30729,-0.209634 0.460937,-0.316406 -0.5,-0.255206 -0.75,-0.641925 -0.75,-1.160156 0,-0.377601 0.132161,-0.699216 0.396485,-0.964844 0.264322,-0.265621 0.586587,-0.398433 0.966796,-0.398437 0.200519,4e-6 0.447915,0.07683 0.742188,0.230468 l 0.355469,0 c 0.20833,4e-6 0.476559,-0.02604 0.804687,-0.07813 z m -1.277344,1.261719 c -2e-6,-0.221351 -0.05729,-0.416664 -0.171875,-0.585937 -0.127606,-0.190101 -0.296876,-0.285153 -0.507812,-0.285157 -0.182293,4e-6 -0.328777,0.06446 -0.439453,0.19336 -0.110678,0.128909 -0.166017,0.28581 -0.166016,0.470703 -10e-7,0.226565 0.05859,0.428388 0.175781,0.605469 0.132812,0.197918 0.308593,0.296877 0.527344,0.296875 0.184894,2e-6 0.330727,-0.07161 0.4375,-0.214844 0.09635,-0.127602 0.144529,-0.287758 0.144531,-0.480469 z M 76.359375,21.25 c -3e-6,-0.158854 -0.06901,-0.264323 -0.207031,-0.316406 -0.08334,-0.03125 -0.220054,-0.04687 -0.410157,-0.04687 l -0.636718,0 c -0.153647,0.140625 -0.23047,0.278645 -0.230469,0.414062 -10e-7,0.252604 0.236978,0.378906 0.710937,0.378906 0.515623,0 0.773435,-0.143229 0.773438,-0.429687 z m -2.824219,-2.390625 -0.0078,0.390625 -2.148438,0 c 0.111978,0.856772 0.509113,1.285157 1.191406,1.285156 0.260415,1e-6 0.552081,-0.07031 0.875,-0.210937 L 73.15625,21.03125 c -0.296878,0.07552 -0.540367,0.113281 -0.730469,0.113281 -0.578126,0 -1.031251,-0.186198 -1.359375,-0.558594 -0.315104,-0.354165 -0.472656,-0.822915 -0.472656,-1.40625 0,-0.541664 0.126302,-1.001299 0.378906,-1.378906 0.291666,-0.432288 0.695311,-0.648433 1.210938,-0.648437 0.455727,4e-6 0.804685,0.178389 1.046875,0.535156 0.213538,0.309899 0.315101,0.700524 0.304687,1.171875 z M 72.898437,18.59375 c 0.0078,-0.236976 -0.05339,-0.441403 -0.183593,-0.613281 -0.138023,-0.190101 -0.322919,-0.285153 -0.554688,-0.285157 -0.25521,4e-6 -0.451824,0.109379 -0.589844,0.328125 -0.114584,0.184899 -0.171876,0.412764 -0.171875,0.683594 l 1.496094,0 z m -2.496093,-1.367188 -0.160157,0.832032 C 70.059893,17.936201 69.88281,17.875003 69.710937,17.875 c -0.177085,3e-6 -0.434897,0.08464 -0.773437,0.253906 l 0,1.789063 c -10e-7,0.401042 0.05078,0.782552 0.152344,1.144531 l -1.066407,0 c 0.101563,-0.367187 0.152344,-0.686197 0.152344,-0.957031 l 0,-1.515625 c 0,-0.528643 -0.05078,-0.980466 -0.152344,-1.355469 l 0.914063,0 0,0.691406 0.597656,-0.664062 c 0.195311,-0.07291 0.365883,-0.109371 0.511719,-0.109375 0.117185,4e-6 0.235674,0.02474 0.355469,0.07422 z m -7.501858,-1.857447 v 7.93436 H 39.990668 v -7.93436 h 22.909818 z m 1.95254,-1.138903 H 38.038128 V 24.442379 H 64.853026 V 14.230212 z m -9.357358,1.786142 h 2.443279 v 1.200822 h -2.443279 v -1.200822 z m -8.810908,3.026484 v -1.200822 h 2.443281 v 1.200822 H 46.68476 z m 0.710726,0.62484 V 20.8685 h -2.443279 v -1.200822 h 2.443279 z m 1.071229,0 h 2.443216 V 20.8685 h -2.443216 v -1.200822 z m 1.73249,-0.62484 v -1.200822 h 2.443216 v 1.200822 h -2.443216 z m 1.781955,0.62484 h 2.44315 V 20.8685 h -2.44315 v -1.200822 z m 1.732555,-0.62484 v -1.200822 h 2.443147 v 1.200822 H 53.713715 z M 51.98116,16.016354 h 2.44315 v 1.200822 h -2.44315 v -1.200822 z m -3.514445,0 h 2.443216 v 1.200822 h -2.443216 v -1.200822 z m -3.514508,0 h 2.443279 v 1.200822 h -2.443279 v -1.200822 z m -3.514444,0 h 2.443213 v 1.200822 h -2.443213 v -1.200822 z m 0,1.825662 h 4.175705 v 1.200822 l -4.175705,8.75e-4 v -1.201695 z m 2.443213,3.026446 H 41.437763 V 19.66764 h 2.443213 v 1.200822 z M 57.938947,22.6942 H 44.952207 V 21.493302 H 57.938884 V 22.6942 z m 0,-1.825738 H 55.495668 V 19.66764 h 2.443279 v 1.200822 z m 3.514444,0 H 59.010112 V 19.66764 h 2.443279 v 1.200822 z m 0,-1.825624 h -4.225234 v -1.200822 h 4.225234 v 1.200822 z m 0,-1.825624 h -2.443279 v -1.200823 h 2.443279 v 1.200823 z" /></g></svg>